<svg width="32" height="32" viewBox="0 0 32 32" fill="none" xmlns="http://www.w3.org/2000/svg">
<path d="M22.406 4L17.78 8.594C16.628 9.747 16.628 11.659 17.78 12.814L16 14.56L14.72 13.28L7.21998 5.78L6.49998 5.092L5.77998 5.779C4.9297 6.63496 4.45249 7.79249 4.45249 8.999C4.45249 10.2055 4.9297 11.363 5.77998 12.219L12.062 18.499L4.28198 26.279L5.71898 27.719L13.499 19.937L14.687 21.093L15.405 21.811L16.093 21.093L17.873 19.311L26.28 27.718L27.72 26.278L18.594 17.185L17.437 16L19.187 14.22H19.219L19.249 14.25C20.407 15.35 22.269 15.355 23.405 14.22L23.499 14.094L27.999 9.594L26.593 8.188L22 12.78C21.565 13.216 21.063 13.225 20.625 12.813L25.905 7.5L24.5 6.094L19.187 11.374C18.775 10.937 18.784 10.434 19.219 10L23.812 5.406L22.405 4H22.406ZM6.77998 8.22L16.47 17.906L15.406 18.969L7.21898 10.779C6.47698 10.039 6.45498 9.103 6.77898 8.219L6.77998 8.22Z" fill="black"/>
</svg>
