<svg width="32" height="32" viewBox="0 0 32 32" fill="none" xmlns="http://www.w3.org/2000/svg">
<path d="M29.3334 15.3229H6.66671V7.8696C6.66202 7.38939 6.78873 6.91704 7.03314 6.50366C7.27755 6.09027 7.63035 5.7516 8.05337 5.52427C8.52144 5.27126 9.05463 5.16443 9.58404 5.2176C9.31455 6.03351 9.27617 6.90809 9.47314 7.74447C9.67012 8.58084 10.0948 9.34638 10.7 9.95627L12.1134 11.3696C12.2372 11.4936 12.3843 11.5919 12.5461 11.659C12.708 11.7261 12.8815 11.7607 13.0567 11.7607C13.2319 11.7607 13.4054 11.7261 13.5673 11.659C13.7292 11.5919 13.8762 11.4936 14 11.3696L18.7134 6.65627C18.9633 6.40623 19.1038 6.06715 19.1038 5.7136C19.1038 5.36005 18.9633 5.02097 18.7134 4.77093L17.3 3.3576C16.5131 2.57391 15.472 2.09716 14.3645 2.0133C13.257 1.92945 12.1561 2.24401 11.26 2.90027C10.4523 2.58461 9.57965 2.4711 8.71803 2.56963C7.8564 2.66815 7.03191 2.97571 6.31626 3.46555C5.60061 3.9554 5.0155 4.61269 4.61182 5.38025C4.20814 6.1478 3.99812 7.00237 4.00004 7.8696V15.3229H2.66671C2.31309 15.3229 1.97395 15.4634 1.7239 15.7135C1.47385 15.9635 1.33337 16.3026 1.33337 16.6563C1.33337 17.0099 1.47385 17.349 1.7239 17.5991C1.97395 17.8491 2.31309 17.9896 2.66671 17.9896H4.00004V21.9896C4.00249 22.8142 4.26014 23.6178 4.73761 24.2901C5.21508 24.9623 5.88896 25.4703 6.66671 25.7443V27.3229C6.66671 27.6766 6.80718 28.0157 7.05723 28.2657C7.30728 28.5158 7.64642 28.6563 8.00004 28.6563C8.35366 28.6563 8.6928 28.5158 8.94285 28.2657C9.1929 28.0157 9.33337 27.6766 9.33337 27.3229V25.9896H22.6667V27.3229C22.6667 27.6766 22.8072 28.0157 23.0572 28.2657C23.3073 28.5158 23.6464 28.6563 24 28.6563C24.3537 28.6563 24.6928 28.5158 24.9429 28.2657C25.1929 28.0157 25.3334 27.6766 25.3334 27.3229V25.7443C26.1111 25.4703 26.785 24.9623 27.2625 24.2901C27.7399 23.6178 27.9976 22.8142 28 21.9896V17.9896H29.3334C29.687 17.9896 30.0261 17.8491 30.2762 17.5991C30.5262 17.349 30.6667 17.0099 30.6667 16.6563C30.6667 16.3026 30.5262 15.9635 30.2762 15.7135C30.0261 15.4634 29.687 15.3229 29.3334 15.3229ZM12.5867 5.24293C12.9621 4.86905 13.4703 4.65913 14 4.65913C14.5298 4.65913 15.038 4.86905 15.4134 5.24293L15.8854 5.7136L13.0574 8.5416L12.5854 8.07093C12.2104 7.69565 11.9997 7.18681 11.9997 6.65627C11.9997 6.12572 12.2104 5.61688 12.5854 5.2416L12.5867 5.24293ZM25.3334 21.9896C25.3334 22.3432 25.1929 22.6824 24.9429 22.9324C24.6928 23.1825 24.3537 23.3229 24 23.3229H8.00004C7.64642 23.3229 7.30728 23.1825 7.05723 22.9324C6.80718 22.6824 6.66671 22.3432 6.66671 21.9896V17.9896H25.3334V21.9896Z" fill="black"/>
</svg>
