<svg width="32" height="32" viewBox="0 0 32 32" fill="none" xmlns="http://www.w3.org/2000/svg">
<path d="M12 8.00002C12 7.6464 12.1405 7.30726 12.3905 7.05721C12.6406 6.80716 12.9797 6.66669 13.3333 6.66669C13.687 6.66669 14.0261 6.80716 14.2761 7.05721C14.5262 7.30726 14.6667 7.6464 14.6667 8.00002V10.6667C14.6667 11.0203 14.5262 11.3594 14.2761 11.6095C14.0261 11.8595 13.687 12 13.3333 12C12.9797 12 12.6406 11.8595 12.3905 11.6095C12.1405 11.3594 12 11.0203 12 10.6667V8.00002Z" fill="black"/>
<path d="M13.3333 17.3333C12.9797 17.3333 12.6406 17.4738 12.3905 17.7239C12.1405 17.9739 12 18.3131 12 18.6667V21.3333C12 21.687 12.1405 22.0261 12.3905 22.2762C12.6406 22.5262 12.9797 22.6667 13.3333 22.6667C13.687 22.6667 14.0261 22.5262 14.2761 22.2762C14.5262 22.0261 14.6667 21.687 14.6667 21.3333V18.6667C14.6667 18.3131 14.5262 17.9739 14.2761 17.7239C14.0261 17.4738 13.687 17.3333 13.3333 17.3333Z" fill="black"/>
<path fill-rule="evenodd" clip-rule="evenodd" d="M6.66663 5.33334C6.66663 4.27248 7.08805 3.25506 7.8382 2.50492C8.58834 1.75477 9.60576 1.33334 10.6666 1.33334H21.3333C22.3942 1.33334 23.4116 1.75477 24.1617 2.50492C24.9119 3.25506 25.3333 4.27248 25.3333 5.33334V26.6667C25.3333 27.7275 24.9119 28.745 24.1617 29.4951C23.4116 30.2452 22.3942 30.6667 21.3333 30.6667H10.6666C9.60576 30.6667 8.58834 30.2452 7.8382 29.4951C7.08805 28.745 6.66663 27.7275 6.66663 26.6667V5.33334ZM10.6666 4.00001H21.3333C21.6869 4.00001 22.0261 4.14049 22.2761 4.39053C22.5262 4.64058 22.6666 4.97972 22.6666 5.33334V13.3333H9.33329V5.33334C9.33329 4.97972 9.47377 4.64058 9.72382 4.39053C9.97387 4.14049 10.313 4.00001 10.6666 4.00001ZM9.33329 16H22.6666V26.6667C22.6666 27.0203 22.5262 27.3594 22.2761 27.6095C22.0261 27.8595 21.6869 28 21.3333 28H10.6666C10.313 28 9.97387 27.8595 9.72382 27.6095C9.47377 27.3594 9.33329 27.0203 9.33329 26.6667V16Z" fill="black"/>
</svg>
