<svg width="32" height="32" viewBox="0 0 32 32" fill="none" xmlns="http://www.w3.org/2000/svg">
<path d="M28 8.66667V6C28 3.8 26.2 2 24 2H18.6667C17.64 2 16.7067 2.4 16 3.04C15.2933 2.4 14.36 2 13.3333 2H8C5.8 2 4 3.8 4 6V8.66667C1.8 8.66667 0 10.4667 0 12.6667V19.3333C0 21.5333 1.8 23.3333 4 23.3333V26H6.66667V23.3333H25.3333V26H28V23.3333C30.2 23.3333 32 21.5333 32 19.3333V12.6667C32 10.4667 30.2 8.66667 28 8.66667ZM18.6667 4.66667H24C24.7333 4.66667 25.3333 5.26667 25.3333 6V9.70667C24.52 10.44 24 11.4933 24 12.6667V15.3333H17.3333V6C17.3333 5.26667 17.9333 4.66667 18.6667 4.66667ZM6.66667 6C6.66667 5.26667 7.26667 4.66667 8 4.66667H13.3333C14.0667 4.66667 14.6667 5.26667 14.6667 6V15.3333H8V12.6667C8 11.4933 7.48 10.44 6.66667 9.70667V6ZM29.3333 19.3333C29.3333 20.0667 28.7333 20.6667 28 20.6667H4C3.26667 20.6667 2.66667 20.0667 2.66667 19.3333V12.6667C2.66667 11.9333 3.26667 11.3333 4 11.3333C4.73333 11.3333 5.33333 11.9333 5.33333 12.6667V18H26.6667V12.6667C26.6667 11.9333 27.2667 11.3333 28 11.3333C28.7333 11.3333 29.3333 11.9333 29.3333 12.6667V19.3333Z" fill="black"/>
</svg>
