<svg width="32" height="32" viewBox="0 0 32 32" fill="none" xmlns="http://www.w3.org/2000/svg">
<path d="M29.3333 4.8V14.6667H2.66663V4.8C2.66663 4.58783 2.75091 4.38434 2.90094 4.23431C3.05097 4.08429 3.25445 4 3.46663 4H28.5333C28.7455 4 28.949 4.08429 29.099 4.23431C29.249 4.38434 29.3333 4.58783 29.3333 4.8V4.8Z" stroke="black" stroke-width="1.5" stroke-linecap="round" stroke-linejoin="round"/>
<path d="M24 9.33334H25.3333" stroke="black" stroke-width="1.5" stroke-linecap="round" stroke-linejoin="round"/>
<path d="M2.66663 14.6667L3.71996 18.112C3.88672 18.6582 4.22442 19.1364 4.68335 19.4763C5.14228 19.8162 5.69821 19.9998 6.26929 20H7.99996" stroke="black" stroke-width="1.5" stroke-linecap="round" stroke-linejoin="round"/>
<path d="M29.3333 14.6667L28.28 18.112C28.1132 18.6582 27.7755 19.1364 27.3166 19.4763C26.8577 19.8162 26.3018 19.9998 25.7307 20H24" stroke="black" stroke-width="1.5" stroke-linecap="round" stroke-linejoin="round"/>
<path d="M12.6667 19.3333C12.6667 19.3333 12.6667 28.6667 8 28.6667" stroke="black" stroke-width="1.5" stroke-linecap="round" stroke-linejoin="round"/>
<path d="M19.3333 19.3333C19.3333 19.3333 19.3333 28.6667 23.9999 28.6667" stroke="black" stroke-width="1.5" stroke-linecap="round" stroke-linejoin="round"/>
<path d="M16 19.3333V28.6667" stroke="black" stroke-width="1.5" stroke-linecap="round" stroke-linejoin="round"/>
</svg>
