<svg width="32" height="32" viewBox="0 0 32 32" fill="none" xmlns="http://www.w3.org/2000/svg">
<path d="M23.5614 19.076C21.5787 17.092 18.8934 16 16.0001 16C13.1067 16 10.4214 17.092 8.43872 19.076L10.3241 20.9613C11.8041 19.4813 13.8187 18.6653 16.0001 18.6653C18.1814 18.6667 20.1961 19.4813 21.6761 20.9613L23.5614 19.076Z" fill="black"/>
<path d="M27.2493 15.056C21.1533 8.95867 10.848 8.95867 4.75195 15.056L6.63729 16.9413C11.7133 11.8653 20.288 11.8653 25.364 16.9413L27.2493 15.056Z" fill="black"/>
<path d="M16 26.6667C17.4728 26.6667 18.6667 25.4728 18.6667 24C18.6667 22.5273 17.4728 21.3333 16 21.3333C14.5273 21.3333 13.3334 22.5273 13.3334 24C13.3334 25.4728 14.5273 26.6667 16 26.6667Z" fill="black"/>
</svg>
