<svg width="26" height="26" viewBox="0 0 26 26" fill="none" xmlns="http://www.w3.org/2000/svg">
<path d="M20.5833 4.33332H18.4166V3.24999C18.4166 2.96267 18.3025 2.68712 18.0993 2.48396C17.8962 2.28079 17.6206 2.16666 17.3333 2.16666C17.046 2.16666 16.7704 2.28079 16.5673 2.48396C16.3641 2.68712 16.25 2.96267 16.25 3.24999V4.33332H9.74996V3.24999C9.74996 2.96267 9.63582 2.68712 9.43266 2.48396C9.22949 2.28079 8.95394 2.16666 8.66663 2.16666C8.37931 2.16666 8.10376 2.28079 7.90059 2.48396C7.69743 2.68712 7.58329 2.96267 7.58329 3.24999V4.33332H5.41663C4.55467 4.33332 3.72802 4.67573 3.11853 5.28523C2.50904 5.89472 2.16663 6.72137 2.16663 7.58332V20.5833C2.16663 21.4453 2.50904 22.2719 3.11853 22.8814C3.72802 23.4909 4.55467 23.8333 5.41663 23.8333H20.5833C21.4452 23.8333 22.2719 23.4909 22.8814 22.8814C23.4909 22.2719 23.8333 21.4453 23.8333 20.5833V7.58332C23.8333 6.72137 23.4909 5.89472 22.8814 5.28523C22.2719 4.67573 21.4452 4.33332 20.5833 4.33332V4.33332ZM21.6666 20.5833C21.6666 20.8706 21.5525 21.1462 21.3493 21.3494C21.1462 21.5525 20.8706 21.6667 20.5833 21.6667H5.41663C5.12931 21.6667 4.85376 21.5525 4.65059 21.3494C4.44743 21.1462 4.33329 20.8706 4.33329 20.5833V13H21.6666V20.5833ZM21.6666 10.8333H4.33329V7.58332C4.33329 7.29601 4.44743 7.02046 4.65059 6.81729C4.85376 6.61413 5.12931 6.49999 5.41663 6.49999H7.58329V7.58332C7.58329 7.87064 7.69743 8.14619 7.90059 8.34936C8.10376 8.55252 8.37931 8.66666 8.66663 8.66666C8.95394 8.66666 9.22949 8.55252 9.43266 8.34936C9.63582 8.14619 9.74996 7.87064 9.74996 7.58332V6.49999H16.25V7.58332C16.25 7.87064 16.3641 8.14619 16.5673 8.34936C16.7704 8.55252 17.046 8.66666 17.3333 8.66666C17.6206 8.66666 17.8962 8.55252 18.0993 8.34936C18.3025 8.14619 18.4166 7.87064 18.4166 7.58332V6.49999H20.5833C20.8706 6.49999 21.1462 6.61413 21.3493 6.81729C21.5525 7.02046 21.6666 7.29601 21.6666 7.58332V10.8333Z" fill="#F5F6F8"/>
</svg>
