<svg width="32" height="24" viewBox="0 0 32 24" fill="none" xmlns="http://www.w3.org/2000/svg">
<path d="M10.4615 0L10.0763 0.4872L8.61539 2.4H7.38462V1.2H2.46154V2.4H0V24H32V2.4H23.3846L21.9225 0.4872L21.5385 0H10.4615ZM11.6923 2.4H20.3077L21.7698 4.3128L22.1538 4.8H29.5385V9.6H22.384C21.1015 7.4592 18.7163 6 16 6C13.2849 6 10.8985 7.4592 9.61477 9.6H2.46154V4.8H9.84615L10.2314 4.3128L11.6923 2.4ZM24.6154 6V8.4H27.0769V6H24.6154ZM16 8.4C18.7323 8.4 20.9231 10.536 20.9231 13.2C20.9231 15.864 18.7323 18 16 18C13.2677 18 11.0769 15.864 11.0769 13.2C11.0769 10.536 13.2677 8.4 16 8.4ZM2.46154 12H8.73108C8.65878 12.3962 8.62008 12.7976 8.61539 13.2C8.61539 17.1624 11.936 20.4 16 20.4C20.064 20.4 23.3846 17.1624 23.3846 13.2C23.3846 12.7956 23.3354 12.3864 23.2689 12H29.5385V21.6H2.46154V12Z" fill="black"/>
<mask id="path-2-outside-1_6_37" maskUnits="userSpaceOnUse" x="8.14307" y="5.65552" width="16" height="15" fill="black">
<rect fill="white" x="8.14307" y="5.65552" width="16" height="15"/>
<path d="M22.8574 13.311C22.8574 16.9867 19.7873 19.9664 16.0002 19.9664C12.2131 19.9664 9.14307 16.9867 9.14307 13.311C9.14307 9.63527 12.2131 6.65552 16.0002 6.65552C19.7873 6.65552 22.8574 9.63527 22.8574 13.311ZM11.2125 13.311C11.2125 15.8774 13.356 17.9579 16.0002 17.9579C18.6444 17.9579 20.7879 15.8774 20.7879 13.311C20.7879 10.7446 18.6444 8.66408 16.0002 8.66408C13.356 8.66408 11.2125 10.7446 11.2125 13.311Z"/>
</mask>
<path d="M22.8574 13.311C22.8574 16.9867 19.7873 19.9664 16.0002 19.9664C12.2131 19.9664 9.14307 16.9867 9.14307 13.311C9.14307 9.63527 12.2131 6.65552 16.0002 6.65552C19.7873 6.65552 22.8574 9.63527 22.8574 13.311ZM11.2125 13.311C11.2125 15.8774 13.356 17.9579 16.0002 17.9579C18.6444 17.9579 20.7879 15.8774 20.7879 13.311C20.7879 10.7446 18.6444 8.66408 16.0002 8.66408C13.356 8.66408 11.2125 10.7446 11.2125 13.311Z" fill="#FF498B"/>
<path d="M22.8574 13.311C22.8574 16.9867 19.7873 19.9664 16.0002 19.9664C12.2131 19.9664 9.14307 16.9867 9.14307 13.311C9.14307 9.63527 12.2131 6.65552 16.0002 6.65552C19.7873 6.65552 22.8574 9.63527 22.8574 13.311ZM11.2125 13.311C11.2125 15.8774 13.356 17.9579 16.0002 17.9579C18.6444 17.9579 20.7879 15.8774 20.7879 13.311C20.7879 10.7446 18.6444 8.66408 16.0002 8.66408C13.356 8.66408 11.2125 10.7446 11.2125 13.311Z" stroke="#FF498B" mask="url(#path-2-outside-1_6_37)"/>
</svg>
