<svg width="32" height="32" viewBox="0 0 32 32" fill="none" xmlns="http://www.w3.org/2000/svg">
<path d="M18.8523 15.6505L18.8369 15.6908C18.8417 15.6787 18.8456 15.6662 18.8504 15.654L18.8523 15.6505Z" fill="black"/>
<path d="M12.8008 0C7.52787 0 3.2002 4.3136 3.2002 9.57504C3.2002 11.6141 3.853 13.5142 4.9538 15.0707L4.91444 15.0093L11.0604 25.6326L11.0914 25.6733C11.3391 25.9965 11.5842 26.257 11.8808 26.4531C12.1775 26.6493 12.5573 26.7731 12.9304 26.7357C13.676 26.6608 14.1093 26.1456 14.5096 25.6029L14.5346 25.5693L21.3103 14.0384L21.3157 14.0288C21.478 13.736 21.5954 13.4406 21.6959 13.1546C22.1606 12.0183 22.3998 10.8026 22.4002 9.57504C22.4002 4.3136 18.0738 0 12.8008 0ZM12.8008 1.6C17.2021 1.6 20.8002 5.18976 20.8002 9.57504C20.8005 10.5993 20.6005 11.6138 20.2114 12.5613L20.2034 12.5811L20.1964 12.6019C20.1122 12.8442 20.0207 13.064 19.9151 13.2547L13.2082 24.6678C12.9116 25.0586 12.7042 25.151 12.7708 25.144C12.805 25.1408 12.8367 25.1677 12.7634 25.119C12.6933 25.0726 12.5503 24.9366 12.3807 24.7203L6.2818 14.176L6.26036 14.1462C5.341 12.847 4.8002 11.2736 4.8002 9.57504C4.8002 5.19008 8.39955 1.6 12.8008 1.6ZM12.8008 4.112C9.77299 4.112 7.32404 6.55232 7.32404 9.57504C7.32404 12.5978 9.77331 15.0381 12.8008 15.0381C15.8284 15.0381 18.2764 12.5974 18.2764 9.57504C18.2764 6.55232 15.8284 4.112 12.8008 4.112ZM12.8008 5.712C14.9823 5.712 16.6764 7.4032 16.6764 9.57504C16.6764 11.7469 14.9826 13.4381 12.8008 13.4381C10.6191 13.4381 8.92404 11.7466 8.92404 9.57504C8.92404 7.4032 10.6194 5.712 12.8008 5.712Z" fill="black"/>
<path d="M7.68192 22.0983C3.1616 22.737 0 24.265 0 26.5143C0 29.544 5.28256 32 12.8 32C20.3174 32 25.6 29.544 25.6 26.5143C25.6 24.265 22.4387 22.737 17.9187 22.0983L17.2925 23.1645C20.6992 23.6371 23.04 24.6304 23.04 25.7831C23.04 27.3991 18.4554 28.7088 12.8 28.7088C7.14464 28.7088 2.56 27.3991 2.56 25.7831C2.55968 24.6343 4.88512 23.6419 8.3024 23.1674C8.096 22.8109 7.88832 22.4551 7.6816 22.0983H7.68192Z" fill="black"/>
<mask id="path-4-outside-1_6_33" maskUnits="userSpaceOnUse" x="6.35986" y="3.16003" width="13" height="13" fill="black">
<rect fill="white" x="6.35986" y="3.16003" width="13" height="13"/>
<path d="M18.2399 9.60003C18.2399 12.6045 15.8043 15.04 12.7999 15.04C9.79543 15.04 7.35986 12.6045 7.35986 9.60003C7.35986 6.5956 9.79543 4.16003 12.7999 4.16003C15.8043 4.16003 18.2399 6.5956 18.2399 9.60003ZM8.94853 9.60003C8.94853 11.7271 10.6728 13.4514 12.7999 13.4514C14.9269 13.4514 16.6512 11.7271 16.6512 9.60003C16.6512 7.473 14.9269 5.7487 12.7999 5.7487C10.6728 5.7487 8.94853 7.473 8.94853 9.60003Z"/>
</mask>
<path d="M18.2399 9.60003C18.2399 12.6045 15.8043 15.04 12.7999 15.04C9.79543 15.04 7.35986 12.6045 7.35986 9.60003C7.35986 6.5956 9.79543 4.16003 12.7999 4.16003C15.8043 4.16003 18.2399 6.5956 18.2399 9.60003ZM8.94853 9.60003C8.94853 11.7271 10.6728 13.4514 12.7999 13.4514C14.9269 13.4514 16.6512 11.7271 16.6512 9.60003C16.6512 7.473 14.9269 5.7487 12.7999 5.7487C10.6728 5.7487 8.94853 7.473 8.94853 9.60003Z" fill="#FF498B"/>
<path d="M18.2399 9.60003C18.2399 12.6045 15.8043 15.04 12.7999 15.04C9.79543 15.04 7.35986 12.6045 7.35986 9.60003C7.35986 6.5956 9.79543 4.16003 12.7999 4.16003C15.8043 4.16003 18.2399 6.5956 18.2399 9.60003ZM8.94853 9.60003C8.94853 11.7271 10.6728 13.4514 12.7999 13.4514C14.9269 13.4514 16.6512 11.7271 16.6512 9.60003C16.6512 7.473 14.9269 5.7487 12.7999 5.7487C10.6728 5.7487 8.94853 7.473 8.94853 9.60003Z" stroke="#FF498B" stroke-width="0.6" mask="url(#path-4-outside-1_6_33)"/>
</svg>
