<svg width="32" height="32" viewBox="0 0 32 32" fill="none" xmlns="http://www.w3.org/2000/svg">
<g clip-path="url(#clip0_6_29)">
<path fill-rule="evenodd" clip-rule="evenodd" d="M26.2224 3.55556C26.2224 4.49855 25.8478 5.40292 25.181 6.06971C24.5142 6.73651 23.6099 7.11111 22.6669 7.11111C21.7239 7.11111 20.8195 6.73651 20.1527 6.06971C19.4859 5.40292 19.1113 4.49855 19.1113 3.55556C19.1113 2.61256 19.4859 1.70819 20.1527 1.0414C20.8195 0.374602 21.7239 0 22.6669 0C23.6099 0 24.5142 0.374602 25.181 1.0414C25.8478 1.70819 26.2224 2.61256 26.2224 3.55556ZM24.4447 3.55556C24.4447 4.02705 24.2574 4.47924 23.924 4.81263C23.5906 5.14603 23.1384 5.33333 22.6669 5.33333C22.1954 5.33333 21.7432 5.14603 21.4098 4.81263C21.0764 4.47924 20.8891 4.02705 20.8891 3.55556C20.8891 3.08406 21.0764 2.63188 21.4098 2.29848C21.7432 1.96508 22.1954 1.77778 22.6669 1.77778C23.1384 1.77778 23.5906 1.96508 23.924 2.29848C24.2574 2.63188 24.4447 3.08406 24.4447 3.55556Z" fill="black"/>
<path fill-rule="evenodd" clip-rule="evenodd" d="M4.44444 19.5556C4.44444 19.0841 4.63175 18.6319 4.96514 18.2985C5.29854 17.9651 5.75073 17.7778 6.22222 17.7778H8.88889C9.36038 17.7778 9.81257 17.9651 10.146 18.2985C10.4794 18.6319 10.6667 19.0841 10.6667 19.5556V21.3334H13.3333C13.8048 21.3334 14.257 21.5207 14.5904 21.8541C14.9238 22.1875 15.1111 22.6397 15.1111 23.1112V30.2223C15.1111 30.6938 14.9238 31.146 14.5904 31.4794C14.257 31.8128 13.8048 32.0001 13.3333 32.0001H1.77778C1.30628 32.0001 0.854097 31.8128 0.520699 31.4794C0.187301 31.146 0 30.6938 0 30.2223V23.1112C0 22.6397 0.187301 22.1875 0.520699 21.8541C0.854097 21.5207 1.30628 21.3334 1.77778 21.3334H4.44444V19.5556ZM1.77778 30.2223V23.1112H3.55556V30.2223H1.77778ZM8.88889 19.5556V21.3334H6.22222V19.5556H8.88889ZM9.77778 23.1112H5.33333V30.2223H9.77778V23.1112ZM11.5556 23.1112V30.2223H13.3333V23.1112H11.5556Z" fill="#FF498B"/>
<path d="M28.4443 14.2222C28.4443 13.7507 28.257 13.2986 27.9236 12.9652C27.5902 12.6318 27.138 12.4445 26.6665 12.4445V16C27.138 16 27.5902 15.8127 27.9236 15.4793C28.257 15.1459 28.4443 14.6937 28.4443 14.2222Z" fill="black"/>
<path fill-rule="evenodd" clip-rule="evenodd" d="M19.5556 31.9999C18.8484 31.9999 18.1701 31.7189 17.67 31.2189C17.1699 30.7188 16.8889 30.0405 16.8889 29.3332V14.2221H12.4445C11.7373 14.2221 11.059 13.9412 10.5589 13.4411C10.0588 12.941 9.77783 12.2627 9.77783 11.5555C9.77783 10.8482 10.0588 10.1699 10.5589 9.66984C11.059 9.16975 11.7373 8.88879 12.4445 8.88879H27.5698C28.5592 8.88879 32.0001 10.1012 32.0001 13.8408C32.0001 16.8088 29.8338 18.6648 28.4445 19.3048V29.3332C28.4445 30.0405 28.1635 30.7188 27.6634 31.2189C27.1634 31.7189 26.4851 31.9999 25.7778 31.9999C25.0706 31.9999 24.3923 31.7189 23.8922 31.2189C23.3921 30.7188 23.1112 30.0405 23.1112 29.3332V22.2221H22.2223V29.3332C22.2223 29.9563 22.0089 30.5297 21.6498 30.9839C21.4005 31.3008 21.0825 31.557 20.7197 31.733C20.3569 31.909 19.9588 32.0003 19.5556 31.9999ZM26.6667 18.1661L27.7005 17.6897C28.7174 17.2212 30.2223 15.8701 30.2223 13.8408C30.2223 12.6017 29.6845 11.8515 29.0596 11.3617C28.7562 11.1255 28.4187 10.9367 28.0587 10.8017C27.9028 10.7408 27.7411 10.6961 27.5761 10.6683C27.5636 10.6666 27.5618 10.6666 27.5689 10.6666H12.4445C12.2088 10.6666 11.9827 10.7602 11.816 10.9269C11.6493 11.0936 11.5556 11.3197 11.5556 11.5555C11.5556 11.7912 11.6493 12.0173 11.816 12.184C11.9827 12.3507 12.2088 12.4443 12.4445 12.4443H18.6667V29.3332C18.6667 29.569 18.7604 29.7951 18.9271 29.9618C19.0938 30.1285 19.3199 30.2221 19.5556 30.2221C19.7914 30.2221 20.0175 30.1285 20.1841 29.9618C20.3508 29.7951 20.4445 29.569 20.4445 29.3332V20.4443H24.8889V29.3332C24.8889 29.569 24.9826 29.7951 25.1493 29.9618C25.316 30.1285 25.5421 30.2221 25.7778 30.2221C26.0136 30.2221 26.2397 30.1285 26.4064 29.9618C26.5731 29.7951 26.6667 29.569 26.6667 29.3332V18.1661Z" fill="black"/>
</g>
<defs>
<clipPath id="clip0_6_29">
<rect width="32.0002" height="32.0001" fill="white"/>
</clipPath>
</defs>
</svg>
