<svg width="32" height="32" viewBox="0 0 32 32" fill="none" xmlns="http://www.w3.org/2000/svg">
<path d="M30.2222 14.9155C30.5526 14.6694 30.7977 14.3261 30.9231 13.9337C31.0484 13.5413 31.0479 13.1195 30.9214 12.7274C30.795 12.3353 30.549 11.9926 30.218 11.7474C29.8869 11.5022 29.4875 11.3667 29.0756 11.36L21.0756 11.0578C21.0362 11.0551 20.9985 11.041 20.967 11.0174C20.9354 10.9937 20.9114 10.9614 20.8978 10.9244L18.1334 3.45777C17.9945 3.07789 17.7422 2.74987 17.4107 2.51812C17.0792 2.28637 16.6845 2.16208 16.28 2.16208C15.8755 2.16208 15.4808 2.28637 15.1493 2.51812C14.8179 2.74987 14.5656 3.07789 14.4267 3.45777L11.6711 10.9511C11.6575 10.9881 11.6335 11.0204 11.6019 11.044C11.5704 11.0677 11.5327 11.0817 11.4934 11.0844L3.49335 11.3867C3.08145 11.3934 2.68198 11.5289 2.35095 11.7741C2.01992 12.0193 1.77394 12.362 1.6475 12.754C1.52105 13.1461 1.52048 13.5679 1.64587 13.9604C1.77126 14.3528 2.01632 14.6961 2.34669 14.9422L8.62224 19.8755C8.65365 19.9003 8.67712 19.9336 8.68976 19.9716C8.7024 20.0095 8.70365 20.0503 8.69335 20.0889L6.53335 27.7422C6.42142 28.1319 6.43227 28.5467 6.56441 28.93C6.69655 29.3134 6.94358 29.6467 7.27189 29.8847C7.60019 30.1227 7.99384 30.2537 8.39927 30.26C8.8047 30.2664 9.20224 30.1476 9.5378 29.92L16.1689 25.4755C16.2016 25.453 16.2403 25.4409 16.28 25.4409C16.3197 25.4409 16.3585 25.453 16.3911 25.4755L23.0222 29.92C23.3533 30.1554 23.7494 30.2819 24.1556 30.2819C24.5618 30.2819 24.9579 30.1554 25.2889 29.92C25.6173 29.6843 25.8646 29.3526 25.9967 28.9705C26.1288 28.5885 26.1393 28.1749 26.0267 27.7867L23.8489 20.1067C23.8374 20.0681 23.838 20.0269 23.8507 19.9887C23.8635 19.9506 23.8877 19.9172 23.92 19.8933L30.2222 14.9155Z" fill="#FFB13C"/>
</svg>
